<?xml version="1.0" encoding="UTF-8"?>
<svg version="1.1" xmlns="http://www.w3.org/2000/svg" width="256" height="256">
<path d="M0 0 C1.50203581 -0.00734685 3.00406599 -0.01593487 4.50608826 -0.02566528 C8.57238148 -0.04782747 12.63847173 -0.05081457 16.70481706 -0.04891777 C20.10665824 -0.0487978 23.50845684 -0.05737282 26.91028613 -0.06569529 C34.94087088 -0.08491102 42.97135169 -0.08782016 51.00195312 -0.08105469 C59.26872511 -0.07441797 67.53505045 -0.0972674 75.80173188 -0.13436842 C82.91452303 -0.1651249 90.02717096 -0.17641894 97.14002723 -0.1725316 C101.3814148 -0.17046991 105.62245485 -0.17585286 109.86377907 -0.20042419 C113.85557541 -0.22278705 117.84664899 -0.22073531 121.83844948 -0.20049667 C123.29685027 -0.19710316 124.75530062 -0.20210374 126.21363449 -0.21648026 C135.78378476 -0.30425558 143.84152067 0.45359587 151.13096333 7.17533112 C157.914164 14.33779221 158.66355022 21.47308602 158.56787109 30.95483398 C158.56830917 32.09702393 158.56874725 33.23921387 158.56919861 34.41601562 C158.56711513 38.17660853 158.54380404 41.93675097 158.52026367 45.69726562 C158.51466617 48.31042741 158.5103968 50.92359236 158.50740051 53.53675842 C158.49809759 59.70252229 158.47350781 65.86812548 158.44335204 72.03381878 C158.40975318 79.05679936 158.39330828 86.07978784 158.37826574 93.10282886 C158.3469565 107.54194457 158.29362199 121.98092559 158.22729492 136.41992188 C162.18729492 136.41992188 166.14729492 136.41992188 170.22729492 136.41992188 C170.22729492 134.43992188 170.22729492 132.45992187 170.22729492 130.41992188 C172.13768704 123.39288512 177.47642927 118.55123514 183.22729492 114.41992188 C189.87359035 110.93852903 199.57193315 111.35440897 206.77026367 113.00195312 C213.05255987 115.74810655 218.29260237 121.72641791 221.43041992 127.71679688 C223.41683971 134.4550444 223.62564352 144.43243261 220.78979492 150.91992188 C217.05413193 156.92366597 211.02391513 162.37234922 204.22729492 164.41992188 C200.70880302 164.69252345 197.20366297 164.65237199 193.67651367 164.61523438 C192.66257034 164.61240448 191.64862701 164.60957458 190.60395813 164.60665894 C187.37411566 164.59548812 184.14455321 164.57038899 180.91479492 164.54492188 C178.72143956 164.53488808 176.52807984 164.52576293 174.3347168 164.51757812 C168.96548106 164.49555894 163.596408 164.4621121 158.22729492 164.41992188 C158.23712906 165.03648148 158.2469632 165.65304108 158.25709534 166.2882843 C158.2685685 167.50260384 158.2685685 167.50260384 158.28027344 168.74145508 C158.29502464 169.94473198 158.29502464 169.94473198 158.31007385 171.1723175 C158.11153031 176.56314975 155.08451144 181.32007612 151.58276367 185.27929688 C146.57404877 189.84706397 141.38640247 192.60352694 134.50073242 192.49023438 C133.69812988 192.48008301 132.89552734 192.46993164 132.06860352 192.45947266 C131.46097168 192.4464209 130.85333984 192.43336914 130.22729492 192.41992188 C130.23617737 192.97844849 130.24505981 193.5369751 130.25421143 194.11242676 C130.34306116 199.95277621 130.40318437 205.79293204 130.44702148 211.63378906 C130.46707256 213.81030076 130.49432063 215.98675901 130.52905273 218.16308594 C130.57785704 221.3009158 130.6003293 224.43803022 130.61791992 227.57617188 C130.63856506 228.54107544 130.65921021 229.505979 130.68048096 230.50012207 C130.68293343 237.97100334 129.03483742 243.25578632 124.04370117 248.88085938 C123.29991211 249.5125 122.55612305 250.14414063 121.78979492 250.79492188 C121.04858398 251.44203125 120.30737305 252.08914062 119.54370117 252.75585938 C112.54884062 257.78083508 104.44803705 257.05609991 96.22729492 256.41992188 C89.12825638 254.79510353 84.34781271 249.15576001 80.22729492 243.41992188 C76.74590208 236.77362644 77.16178201 227.07528365 78.80932617 219.87695312 C81.56601695 213.57055094 87.58613159 208.27296124 93.63745117 205.19335938 C96.22729492 204.41992188 96.22729492 204.41992188 102.22729492 204.41992188 C102.22729492 200.45992187 102.22729492 196.49992188 102.22729492 192.41992188 C100.78371613 192.43102493 99.34013733 192.44212799 97.85281372 192.4535675 C84.22885872 192.55505567 70.60494312 192.6302424 56.98069954 192.67898273 C49.9768055 192.70470773 42.97319464 192.73974782 35.96948242 192.79711914 C29.2067485 192.85248982 22.44430856 192.88136913 15.68136215 192.89430809 C13.10503391 192.9035255 10.52872121 192.92152498 7.95251846 192.94857216 C4.33559046 192.98502538 0.71986622 192.98986012 -2.8972168 192.98754883 C-4.48434227 193.0145134 -4.48434227 193.0145134 -6.10353088 193.04202271 C-14.02789882 192.98745791 -20.73028134 191.12294944 -26.68920708 185.66432667 C-34.2829498 177.57927767 -34.21714403 169.25416288 -34.19262695 158.6472168 C-34.1999738 157.14518098 -34.20856182 155.6431508 -34.21829224 154.14112854 C-34.24045443 150.07483532 -34.24344152 146.00874506 -34.24154472 141.94239974 C-34.24142476 138.54055856 -34.24999977 135.13875996 -34.25832224 131.73693067 C-34.27753797 123.70634592 -34.28044712 115.67586511 -34.27368164 107.64526367 C-34.26704492 99.37849168 -34.28989435 91.11216634 -34.32699537 82.84548491 C-34.35775186 75.73269376 -34.36904589 68.62004584 -34.36515856 61.50718957 C-34.36309686 57.265802 -34.36847981 53.02476195 -34.39305115 48.78343773 C-34.41541401 44.79164139 -34.41336226 40.8005678 -34.39312363 36.80876732 C-34.38973011 35.35036653 -34.3947307 33.89191618 -34.40910721 32.43358231 C-34.49688253 22.86343203 -33.73903108 14.80569613 -27.01729584 7.51625347 C-18.96585101 -0.10885824 -10.59007208 -0.02447807 0 0 Z M184.85229492 129.60742188 C182.7972449 133.16423921 182.03411033 136.35531799 182.22729492 140.41992188 C183.77091997 145.56533869 185.53508198 148.70886551 190.22729492 151.41992188 C196.24551122 152.87594195 199.70837149 152.60391616 205.22729492 149.41992188 C208.7277831 146.19578802 209.95528009 143.25328439 210.32495117 138.47460938 C210.10073291 133.7570571 208.17156836 130.44513304 205.03979492 127.04492188 C197.73298589 122.82320999 191.02582978 123.92127135 184.85229492 129.60742188 Z M92.85229492 221.60742188 C90.7972449 225.16423921 90.03411033 228.35531799 90.22729492 232.41992188 C91.77091997 237.56533869 93.53508198 240.70886551 98.22729492 243.41992188 C104.24551122 244.87594195 107.70837149 244.60391616 113.22729492 241.41992188 C116.7277831 238.19578802 117.95528009 235.25328439 118.32495117 230.47460938 C118.10073291 225.7570571 116.17156836 222.44513304 113.03979492 219.04492188 C105.73298589 214.82320999 99.02582978 215.92127135 92.85229492 221.60742188 Z " fill="#E7E9EB" transform="translate(33.772705078125,-0.419921875)"/>
<path d="M0 0 C8.00802762 -0.19089458 13.68650567 2.02980233 20 7 C25.20079205 12.90829837 28.26086861 18.04370549 28.22705078 26.07543945 C28.22689972 27.27630692 28.22674866 28.47717438 28.22659302 29.71443176 C28.21627045 31.00105209 28.20594788 32.28767242 28.1953125 33.61328125 C28.19157912 34.95134774 28.18873368 36.28941697 28.18673706 37.62748718 C28.17912616 41.13741699 28.15949982 44.64717945 28.1373291 48.15704346 C28.11681564 51.74334408 28.1076138 55.32967272 28.09765625 58.91601562 C28.0773143 65.94415787 28.03816195 72.97184149 28 80 C41.2 80 54.4 80 68 80 C68 78.02 68 76.04 68 74 C69.91039212 66.97296324 75.24913435 62.13131327 81 58 C87.64629543 54.51860715 97.34463823 54.93448709 104.54296875 56.58203125 C110.82526494 59.32818468 116.06530745 65.30649603 119.203125 71.296875 C121.18954479 78.03512253 121.3983486 88.01251073 118.5625 94.5 C114.82683701 100.50374409 108.79662021 105.95242734 102 108 C98.4815081 108.27260157 94.97636804 108.23245011 91.44921875 108.1953125 C90.43527542 108.1924826 89.42133209 108.18965271 88.37666321 108.18673706 C85.14682073 108.17556625 81.91725829 108.15046711 78.6875 108.125 C76.49414464 108.1149662 74.30078492 108.10584105 72.10742188 108.09765625 C66.73818614 108.07563707 61.36911308 108.04219023 56 108 C56.00983414 108.6165596 56.01966827 109.2331192 56.02980042 109.86836243 C56.04127357 111.08268196 56.04127357 111.08268196 56.05297852 112.3215332 C56.06281265 113.1237178 56.07264679 113.9259024 56.08277893 114.75239563 C55.88423539 120.14322787 52.85721652 124.90015424 49.35546875 128.859375 C44.34675384 133.42714209 39.15910754 136.18360506 32.2734375 136.0703125 C31.47083496 136.06016113 30.66823242 136.05000977 29.84130859 136.03955078 C29.23367676 136.02649902 28.62604492 136.01344727 28 136 C28.00888245 136.55852661 28.01776489 137.11705322 28.0269165 137.69250488 C28.11576624 143.53285433 28.17588945 149.37301017 28.21972656 155.21386719 C28.23977764 157.39037888 28.26702571 159.56683714 28.30175781 161.74316406 C28.35056212 164.88099393 28.37303438 168.01810835 28.390625 171.15625 C28.41127014 172.12115356 28.43191528 173.08605713 28.45318604 174.0802002 C28.45563851 181.55108147 26.8075425 186.83586445 21.81640625 192.4609375 C21.07261719 193.09257812 20.32882813 193.72421875 19.5625 194.375 C18.82128906 195.02210938 18.08007812 195.66921875 17.31640625 196.3359375 C10.3215457 201.36091321 2.22074212 200.63617803 -6 200 C-13.09903854 198.37518166 -17.87948222 192.73583813 -22 187 C-25.48139285 180.35370457 -25.06551291 170.65536177 -23.41796875 163.45703125 C-20.66127797 157.15062906 -14.64116334 151.85303936 -8.58984375 148.7734375 C-6 148 -6 148 0 148 C0 134.8 0 121.6 0 108 C-6.32285156 108.08701172 -6.32285156 108.08701172 -12.7734375 108.17578125 C-16.15897385 108.2079924 -19.54446622 108.23508617 -22.93006897 108.25875092 C-26.49064469 108.28502892 -30.05061405 108.32007309 -33.61083984 108.37719727 C-37.70676148 108.44249683 -41.80205261 108.46628629 -45.8984375 108.48828125 C-47.1592514 108.51408768 -48.42006531 108.5398941 -49.71908569 108.56648254 C-58.81701693 108.56934461 -65.50347795 106.82414492 -72.5078125 100.8671875 C-73.04148438 100.20976562 -73.57515625 99.55234375 -74.125 98.875 C-74.68445313 98.21242188 -75.24390625 97.54984375 -75.8203125 96.8671875 C-77 95 -77 95 -77 92 C-75.70120659 91.99453156 -75.70120659 91.99453156 -74.37617493 91.98895264 C-66.21004339 91.95106171 -58.04431079 91.89419659 -49.87846088 91.81609726 C-45.68043279 91.77661387 -41.48261472 91.74442979 -37.28442383 91.72900391 C-33.23171329 91.71384272 -29.1795801 91.67940754 -25.12712669 91.63169098 C-23.58225718 91.61687148 -22.03730524 91.60895865 -20.49236488 91.60811615 C-18.32542234 91.60574627 -16.16007514 91.5786694 -13.9934082 91.54589844 C-12.76096878 91.53701599 -11.52852936 91.52813354 -10.25874329 91.51898193 C-6.39127777 90.90305593 -4.72928818 89.76520425 -2 87 C-0.76197886 83.28593657 -0.82343149 79.81869631 -0.79467773 75.94848633 C-0.78477814 75.12874832 -0.77487854 74.30901031 -0.76467896 73.46443176 C-0.73307991 70.75366102 -0.7083128 68.04287275 -0.68359375 65.33203125 C-0.66302285 63.45301354 -0.64202634 61.57400045 -0.62062073 59.69499207 C-0.56541414 54.7482985 -0.5159986 49.80156326 -0.46777344 44.85479736 C-0.41754813 39.80745738 -0.36186743 34.76017793 -0.30664062 29.71289062 C-0.19907632 19.80864546 -0.09762747 9.90434775 0 0 Z M82.625 73.1875 C80.56994998 76.74431734 79.8068154 79.93539612 80 84 C81.54362504 89.14541681 83.30778706 92.28894363 88 95 C94.0182163 96.45602007 97.48107657 96.18399429 103 93 C106.50048818 89.77586615 107.72798516 86.83336251 108.09765625 82.0546875 C107.87343799 77.33713522 105.94427344 74.02521116 102.8125 70.625 C95.50569097 66.40328811 88.79853486 67.50134947 82.625 73.1875 Z M-9.375 165.1875 C-11.43005002 168.74431734 -12.1931846 171.93539612 -12 176 C-10.45637496 181.14541681 -8.69221294 184.28894363 -4 187 C2.0182163 188.45602007 5.48107657 188.18399429 11 185 C14.50048818 181.77586615 15.72798516 178.83336251 16.09765625 174.0546875 C15.87343799 169.33713522 13.94427344 166.02521116 10.8125 162.625 C3.50569097 158.40328811 -3.20146514 159.50134947 -9.375 165.1875 Z " fill="#888F96" transform="translate(136,56)"/>
<path d="M0 0 C8.27782769 0 13.52476145 1.90247178 20 7 C25.20079205 12.90829837 28.26086861 18.04370549 28.22705078 26.07543945 C28.22689972 27.27630692 28.22674866 28.47717438 28.22659302 29.71443176 C28.21627045 31.00105209 28.20594788 32.28767242 28.1953125 33.61328125 C28.19157912 34.95134774 28.18873368 36.28941697 28.18673706 37.62748718 C28.17912616 41.13741699 28.15949982 44.64717945 28.1373291 48.15704346 C28.11681564 51.74334408 28.1076138 55.32967272 28.09765625 58.91601562 C28.0773143 65.94415787 28.03816195 72.97184149 28 80 C18.76 80 9.52 80 0 80 C0 53.6 0 27.2 0 0 Z " fill="#959CA1" transform="translate(136,56)"/>
<path d="M0 0 C9.24 0 18.48 0 28 0 C28.0920897 6.40535009 28.17165177 12.80838129 28.21972656 19.21386719 C28.23977764 21.39037888 28.26702571 23.56683714 28.30175781 25.74316406 C28.35056212 28.88099393 28.37303438 32.01810835 28.390625 35.15625 C28.41127014 36.12115356 28.43191528 37.08605713 28.45318604 38.0802002 C28.45563851 45.55108147 26.8075425 50.83586445 21.81640625 56.4609375 C21.07261719 57.09257812 20.32882813 57.72421875 19.5625 58.375 C18.45068359 59.34566406 18.45068359 59.34566406 17.31640625 60.3359375 C10.3215457 65.36091321 2.22074212 64.63617803 -6 64 C-13.09903854 62.37518166 -17.87948222 56.73583813 -22 51 C-25.48139285 44.35370457 -25.06551291 34.65536177 -23.41796875 27.45703125 C-20.66127797 21.15062906 -14.64116334 15.85303936 -8.58984375 12.7734375 C-6 12 -6 12 0 12 C0 8.04 0 4.08 0 0 Z M-9.375 29.1875 C-11.43005002 32.74431734 -12.1931846 35.93539612 -12 40 C-10.45637496 45.14541681 -8.69221294 48.28894363 -4 51 C2.0182163 52.45602007 5.48107657 52.18399429 11 49 C14.50048818 45.77586615 15.72798516 42.83336251 16.09765625 38.0546875 C15.87343799 33.33713522 13.94427344 30.02521116 10.8125 26.625 C3.50569097 22.40328811 -3.20146514 23.50134947 -9.375 29.1875 Z " fill="#1EA1E4" transform="translate(136,192)"/>
<path d="M0 0 C5.97103329 3.7153096 11.49927103 9.77571349 13.5 16.5625 C14.9388304 32.43982614 14.9388304 32.43982614 10.96875 38.8203125 C6.6809657 43.90635452 1.96681446 48.61428573 -4.5 50.5625 C-8.0184919 50.83510157 -11.52363196 50.79495011 -15.05078125 50.7578125 C-16.06472458 50.7549826 -17.07866791 50.75215271 -18.12333679 50.74923706 C-21.35317927 50.73806625 -24.58274171 50.71296711 -27.8125 50.6875 C-30.00585536 50.6774662 -32.19921508 50.66834105 -34.39257812 50.66015625 C-39.76191273 50.63984095 -45.13064389 50.60068586 -50.5 50.5625 C-50.5 41.3225 -50.5 32.0825 -50.5 22.5625 C-46.54 22.5625 -42.58 22.5625 -38.5 22.5625 C-38.5 20.5825 -38.5 18.6025 -38.5 16.5625 C-36.58960788 9.53546324 -31.25086565 4.69381327 -25.5 0.5625 C-18.73913589 -2.97890501 -6.99982822 -3.05980515 0 0 Z M-23.875 15.75 C-25.93005002 19.30681734 -26.6931846 22.49789612 -26.5 26.5625 C-24.95637496 31.70791681 -23.19221294 34.85144363 -18.5 37.5625 C-12.4817837 39.01852007 -9.01892343 38.74649429 -3.5 35.5625 C0.00048818 32.33836615 1.22798516 29.39586251 1.59765625 24.6171875 C1.37343799 19.89963522 -0.55572656 16.58771116 -3.6875 13.1875 C-10.99430903 8.96578811 -17.70146514 10.06384947 -23.875 15.75 Z " fill="#1EA1E4" transform="translate(242.5,113.4375)"/>
<path d="M0 0 C26.4 0 52.8 0 80 0 C79 7 79 7 76.38742065 9.89628601 C72.48559737 12.31946313 70.36032544 12.63508723 65.80126953 12.65942383 C64.76120003 12.67514938 64.76120003 12.67514938 63.70011902 12.69119263 C61.42722044 12.71980342 59.15585785 12.71366852 56.8828125 12.70703125 C55.29953109 12.72015494 53.7162664 12.73546124 52.13302612 12.75285339 C47.98029719 12.79263854 43.82800688 12.80288958 39.67510986 12.80688477 C35.43170928 12.81622855 31.1885651 12.85364982 26.9453125 12.88867188 C18.63020352 12.95318154 10.31534751 12.98647577 2 13 C-0.41970302 8.16059395 0 6.08522941 0 0 Z " fill="#B7C1CB" transform="translate(56,136)"/>
<path d="M0 0 C9.24 0 18.48 0 28 0 C28 9.24 28 18.48 28 28 C18.76 28 9.52 28 0 28 C0 18.76 0 9.52 0 0 Z " fill="#7E858A" transform="translate(136,164)"/>
<path d="M0 0 C9.24 0 18.48 0 28 0 C28 9.24 28 18.48 28 28 C18.76 28 9.52 28 0 28 C0 18.76 0 9.52 0 0 Z " fill="#D83B01" transform="translate(28,68)"/>
<path d="M0 0 C9.24 0 18.48 0 28 0 C28 9.24 28 18.48 28 28 C18.76 28 9.52 28 0 28 C0 18.76 0 9.52 0 0 Z " fill="#D83B01" transform="translate(68,28)"/>
<path d="M0 0 C9.24 0 18.48 0 28 0 C28 9.24 28 18.48 28 28 C24.98875 28.0825 21.9775 28.165 18.875 28.25 C17.93769043 28.28641602 17.00038086 28.32283203 16.03466797 28.36035156 C10.53112243 28.43302884 7.26727397 27.81330865 3 24 C-0.88783585 19.54162221 -0.34904805 14.78544965 -0.1875 9.1875 C-0.125625 6.155625 -0.06375 3.12375 0 0 Z " fill="#D83B02" transform="translate(28,108)"/>
<path d="M0 0 C3.01125 -0.0825 6.0225 -0.165 9.125 -0.25 C10.06230957 -0.28641602 10.99961914 -0.32283203 11.96533203 -0.36035156 C17.46887757 -0.43302884 20.73272603 0.18669135 25 4 C28.88783585 8.45837779 28.34904805 13.21455035 28.1875 18.8125 C28.0946875 23.3603125 28.0946875 23.3603125 28 28 C18.76 28 9.52 28 0 28 C0 18.76 0 9.52 0 0 Z " fill="#D83B02" transform="translate(108,28)"/>
<path d="M0 0 C3.031875 0.061875 6.06375 0.12375 9.1875 0.1875 C9.1875 9.4275 9.1875 18.6675 9.1875 28.1875 C-0.0525 28.1875 -9.2925 28.1875 -18.8125 28.1875 C-18.895 25.17625 -18.9775 22.165 -19.0625 19.0625 C-19.09891602 18.12519043 -19.13533203 17.18788086 -19.17285156 16.22216797 C-19.24552884 10.71862243 -18.62580865 7.45477397 -14.8125 3.1875 C-10.35412221 -0.70033585 -5.59794965 -0.16154805 0 0 Z " fill="#D83B02" transform="translate(46.8125,27.8125)"/>
<path d="M0 0 C9.24 0 18.48 0 28 0 C28 9.03648968 27.29220019 14.14706107 21.35546875 20.859375 C14.61101296 27.01007509 9.30117956 28 0 28 C0 18.76 0 9.52 0 0 Z " fill="#D6DADD" transform="translate(164,164)"/>
<path d="M0 0 C2.4375 1.5625 2.4375 1.5625 4 4 C3.93866496 7.4960972 3.65265114 9.93514814 1.8125 12.9375 C-0.95588471 14.56034621 -2.85545467 14.44922076 -6 14 C-8.375 12.375 -8.375 12.375 -10 10 C-10.61195145 6.3282913 -10.48706506 4.71186432 -8.375 1.625 C-5.28813568 -0.48706506 -3.6717087 -0.61195145 0 0 Z " fill="#C5CDD4" transform="translate(153,143)"/>
<path d="M0 0 C9.24 0 18.48 0 28 0 C28 0.33 28 0.66 28 1 C15.625 1.495 15.625 1.495 3 2 C2.00544091 4.98367726 1.80440368 7.2004192 1.68359375 10.32421875 C1.64169922 11.35224609 1.59980469 12.38027344 1.55664062 13.43945312 C1.51732422 14.51130859 1.47800781 15.58316406 1.4375 16.6875 C1.39431641 17.77095703 1.35113281 18.85441406 1.30664062 19.97070312 C1.20053162 22.64700791 1.09847639 25.32340526 1 28 C0.67 28 0.34 28 0 28 C0 18.76 0 9.52 0 0 Z " fill="#C3C6C9" transform="translate(164,164)"/>
</svg>
